<svg width="115" height="115" viewBox="0 0 115 115" fill="none" xmlns="http://www.w3.org/2000/svg">
<path d="M68.4041 91.6714C90.6891 98.9276 102.542 89.8822 108.207 82.5809C109.518 93.5334 102.249 113.905 72.9326 115C61.1347 113.248 54.2228 108.976 36.5855 112.152C21.3366 114.899 9.17617 101.967 9.17617 94.1905V40.7429H0L34.7979 10.8429L56.3679 29.7905C55.772 31.5794 54.5565 35.5734 54.9378 37.6762L35.0363 20.3714L16.0881 36.1429V78.4191C17.8756 73.9286 27.886 61.9905 45.6425 58.5953C50.5285 57.281 56.4089 52.7957 56.487 48.6286C56.6062 42.2762 56.2267 30.2286 63.1606 24.9714C63.0415 18.327 66.0207 4.49048 75.7927 0C77.342 6.24286 75.7927 12.7048 75.1969 15.4429C76.9845 11.9746 81.8943 4.62191 87.2332 2.95714C87.829 6.46191 87.5907 12.9238 85.2073 17.8524C88.0276 17.9254 94.1927 19.4514 95.8135 25.4095C98.6736 28.4762 107.754 32.5505 115 33.5143C114.642 35.4857 113.332 38.5524 109.637 41.6191C108.565 43.0429 98.0777 44.1381 95.456 46.8762C92.8342 49.6143 93.474 53.9781 94.5026 58.7048C96.0518 65.8239 94.3588 71.1781 92.9534 74.0381C91.285 77.4334 82.1088 86.7429 82.8238 92.2191C79.8843 92.3651 72.2176 91.7153 65.0674 87.9477C64.114 85.1366 62.3741 78.7477 63.0415 75.681C61.9292 76.9953 59.5378 81.1134 59.3472 84.881C56.6062 82.435 48.4073 77.8715 37.5389 79.1858C34.9965 79.6238 29.3876 81.0257 27.2902 83.1286C48.6218 77.8715 54.4611 87.1315 68.4041 91.6714Z" fill="#E76502"/>
<path d="M80.2026 52.1334C86.6375 67.1382 84.6119 75.9001 83.4201 79.9525C90.9279 72.2858 91.6426 60.7858 89.3787 50.6001C89.8374 47.7524 90.6893 44.7953 94.6222 43.3715C99.7463 42.2762 104.751 43.7 109.161 38.4429C104.394 38.2239 97.2837 37.9683 91.7621 37.5667C85.8031 37.5667 74.4923 38.8184 80.2026 52.1334Z" fill="white"/>
<path d="M27.0521 38.7714H33.4873V44.4666H27.0521V38.7714Z" fill="#E76502"/>
<path d="M36.347 38.7714H42.7822V44.4666H36.347V38.7714Z" fill="#E76502"/>
<path d="M36.347 46.6571H42.7822V52.3523H36.347V46.6571Z" fill="#E76502"/>
<path d="M27.0521 46.6571H33.4873V52.3523H27.0521V46.6571Z" fill="#E76502"/>
</svg>
